<svg width="16" height="16" viewBox="0 0 16 16" fill="white" xmlns="http://www.w3.org/2000/svg">
  <path fill-rule="evenodd" clip-rule="evenodd" d="M8 0C3.58 0 0 3.58 0 8c0 3.54 2.29 6.53 5.47 7.59.4.07.55-.17.55-.38v-1.4c-2.22.48-2.69-1.07-2.69-1.07-.36-.91-.89-1.15-.89-1.15-.73-.5.06-.49.06-.49.81.06 1.23.83 1.23.83.72 1.23 1.89.88 2.35.67.07-.52.28-.88.51-1.08-1.77-.2-3.64-.89-3.64-3.96 0-.87.31-1.58.82-2.14-.08-.2-.36-1.01.08-2.1 0 0 .67-.21 2.2.82a7.62 7.62 0 012.01-.27c.68 0 1.36.09 2.01.27 1.53-1.03 2.2-.82 2.2-.82.45 1.09.17 1.9.09 2.1.51.56.82 1.27.82 2.14 0 3.08-1.88 3.76-3.66 3.96.29.25.54.74.54 1.5v2.22c0 .21.14.46.55.38A8.003 8.003 0 008 0z" fill="white"/>
</svg>
